<?xml version="1.0" encoding="UTF-8" standalone="no"?>
<!DOCTYPE svg PUBLIC "-//W3C//DTD SVG 1.1//EN"
 "http://www.w3.org/Graphics/SVG/1.1/DTD/svg11.dtd">
<!-- Generated by graphviz version 2.50.0 (0)
 -->
<!-- Title: snakemake_dag Pages: 1 -->
<svg width="285pt" height="620pt"
 viewBox="0.00 0.00 285.00 620.00" xmlns="http://www.w3.org/2000/svg" xmlns:xlink="http://www.w3.org/1999/xlink">
<g id="graph0" class="graph" transform="scale(1 1) rotate(0) translate(4 616)">
<title>snakemake_dag</title>
<polygon fill="white" stroke="transparent" points="-4,4 -4,-616 281,-616 281,4 -4,4"/>
<!-- 0 -->
<g id="node1" class="node">
<title>0</title>
<path fill="none" stroke="#5692d8" stroke-width="2" d="M157.5,-36C157.5,-36 127.5,-36 127.5,-36 121.5,-36 115.5,-30 115.5,-24 115.5,-24 115.5,-12 115.5,-12 115.5,-6 121.5,0 127.5,0 127.5,0 157.5,0 157.5,0 163.5,0 169.5,-6 169.5,-12 169.5,-12 169.5,-24 169.5,-24 169.5,-30 163.5,-36 157.5,-36"/>
<text text-anchor="middle" x="142.5" y="-15.5" font-family="sans" font-size="10.00">all</text>
</g>
<!-- 1 -->
<g id="node2" class="node">
<title>1</title>
<path fill="none" stroke="#56c9d8" stroke-width="2" d="M121.5,-108C121.5,-108 91.5,-108 91.5,-108 85.5,-108 79.5,-102 79.5,-96 79.5,-96 79.5,-84 79.5,-84 79.5,-78 85.5,-72 91.5,-72 91.5,-72 121.5,-72 121.5,-72 127.5,-72 133.5,-78 133.5,-84 133.5,-84 133.5,-96 133.5,-96 133.5,-102 127.5,-108 121.5,-108"/>
<text text-anchor="middle" x="106.5" y="-87.5" font-family="sans" font-size="10.00">macs2</text>
</g>
<!-- 1&#45;&gt;0 -->
<g id="edge1" class="edge">
<title>1&#45;&gt;0</title>
<path fill="none" stroke="grey" stroke-width="2" d="M115.4,-71.7C119.5,-63.73 124.45,-54.1 128.99,-45.26"/>
<polygon fill="grey" stroke="grey" stroke-width="2" points="132.24,-46.6 133.7,-36.1 126.02,-43.4 132.24,-46.6"/>
</g>
<!-- 2 -->
<g id="node3" class="node">
<title>2</title>
<path fill="none" stroke="#56d8a9" stroke-width="2" d="M122,-180C122,-180 81,-180 81,-180 75,-180 69,-174 69,-168 69,-168 69,-156 69,-156 69,-150 75,-144 81,-144 81,-144 122,-144 122,-144 128,-144 134,-150 134,-156 134,-156 134,-168 134,-168 134,-174 128,-180 122,-180"/>
<text text-anchor="middle" x="101.5" y="-159.5" font-family="sans" font-size="10.00">mark_dup</text>
</g>
<!-- 2&#45;&gt;1 -->
<g id="edge3" class="edge">
<title>2&#45;&gt;1</title>
<path fill="none" stroke="grey" stroke-width="2" d="M102.74,-143.7C103.29,-135.98 103.95,-126.71 104.56,-118.11"/>
<polygon fill="grey" stroke="grey" stroke-width="2" points="108.06,-118.33 105.28,-108.1 101.07,-117.83 108.06,-118.33"/>
</g>
<!-- 3 -->
<g id="node4" class="node">
<title>3</title>
<path fill="none" stroke="#56d873" stroke-width="2" d="M120.5,-252C120.5,-252 82.5,-252 82.5,-252 76.5,-252 70.5,-246 70.5,-240 70.5,-240 70.5,-228 70.5,-228 70.5,-222 76.5,-216 82.5,-216 82.5,-216 120.5,-216 120.5,-216 126.5,-216 132.5,-222 132.5,-228 132.5,-228 132.5,-240 132.5,-240 132.5,-246 126.5,-252 120.5,-252"/>
<text text-anchor="middle" x="101.5" y="-231.5" font-family="sans" font-size="10.00">sort_bam</text>
</g>
<!-- 3&#45;&gt;2 -->
<g id="edge4" class="edge">
<title>3&#45;&gt;2</title>
<path fill="none" stroke="grey" stroke-width="2" d="M101.5,-215.7C101.5,-207.98 101.5,-198.71 101.5,-190.11"/>
<polygon fill="grey" stroke="grey" stroke-width="2" points="105,-190.1 101.5,-180.1 98,-190.1 105,-190.1"/>
</g>
<!-- 4 -->
<g id="node5" class="node">
<title>4</title>
<path fill="none" stroke="#d85656" stroke-width="2" d="M117.5,-324C117.5,-324 85.5,-324 85.5,-324 79.5,-324 73.5,-318 73.5,-312 73.5,-312 73.5,-300 73.5,-300 73.5,-294 79.5,-288 85.5,-288 85.5,-288 117.5,-288 117.5,-288 123.5,-288 129.5,-294 129.5,-300 129.5,-300 129.5,-312 129.5,-312 129.5,-318 123.5,-324 117.5,-324"/>
<text text-anchor="middle" x="101.5" y="-303.5" font-family="sans" font-size="10.00">bowtie2</text>
</g>
<!-- 4&#45;&gt;3 -->
<g id="edge5" class="edge">
<title>4&#45;&gt;3</title>
<path fill="none" stroke="grey" stroke-width="2" d="M101.5,-287.7C101.5,-279.98 101.5,-270.71 101.5,-262.11"/>
<polygon fill="grey" stroke="grey" stroke-width="2" points="105,-262.1 101.5,-252.1 98,-262.1 105,-262.1"/>
</g>
<!-- 5 -->
<g id="node6" class="node">
<title>5</title>
<path fill="none" stroke="#afd856" stroke-width="2" d="M122,-396C122,-396 79,-396 79,-396 73,-396 67,-390 67,-384 67,-384 67,-372 67,-372 67,-366 73,-360 79,-360 79,-360 122,-360 122,-360 128,-360 134,-366 134,-372 134,-372 134,-384 134,-384 134,-390 128,-396 122,-396"/>
<text text-anchor="middle" x="100.5" y="-375.5" font-family="sans" font-size="10.00">sortmerna</text>
</g>
<!-- 5&#45;&gt;4 -->
<g id="edge6" class="edge">
<title>5&#45;&gt;4</title>
<path fill="none" stroke="grey" stroke-width="2" d="M100.75,-359.7C100.86,-351.98 100.99,-342.71 101.11,-334.11"/>
<polygon fill="grey" stroke="grey" stroke-width="2" points="104.61,-334.15 101.26,-324.1 97.61,-334.05 104.61,-334.15"/>
</g>
<!-- 6 -->
<g id="node7" class="node">
<title>6</title>
<path fill="none" stroke="#d88d56" stroke-width="2" d="M118,-468C118,-468 83,-468 83,-468 77,-468 71,-462 71,-456 71,-456 71,-444 71,-444 71,-438 77,-432 83,-432 83,-432 118,-432 118,-432 124,-432 130,-438 130,-444 130,-444 130,-456 130,-456 130,-462 124,-468 118,-468"/>
<text text-anchor="middle" x="100.5" y="-447.5" font-family="sans" font-size="10.00">cutadapt</text>
</g>
<!-- 6&#45;&gt;5 -->
<g id="edge7" class="edge">
<title>6&#45;&gt;5</title>
<path fill="none" stroke="grey" stroke-width="2" d="M100.5,-431.7C100.5,-423.98 100.5,-414.71 100.5,-406.11"/>
<polygon fill="grey" stroke="grey" stroke-width="2" points="104,-406.1 100.5,-396.1 97,-406.1 104,-406.1"/>
</g>
<!-- 7 -->
<g id="node8" class="node">
<title>7</title>
<path fill="none" stroke="#d8cb56" stroke-width="2" d="M123.5,-540C123.5,-540 93.5,-540 93.5,-540 87.5,-540 81.5,-534 81.5,-528 81.5,-528 81.5,-516 81.5,-516 81.5,-510 87.5,-504 93.5,-504 93.5,-504 123.5,-504 123.5,-504 129.5,-504 135.5,-510 135.5,-516 135.5,-516 135.5,-528 135.5,-528 135.5,-534 129.5,-540 123.5,-540"/>
<text text-anchor="middle" x="108.5" y="-519.5" font-family="sans" font-size="10.00">fastqc</text>
</g>
<!-- 7&#45;&gt;6 -->
<g id="edge8" class="edge">
<title>7&#45;&gt;6</title>
<path fill="none" stroke="grey" stroke-width="2" d="M106.52,-503.7C105.64,-495.98 104.58,-486.71 103.6,-478.11"/>
<polygon fill="grey" stroke="grey" stroke-width="2" points="107.07,-477.64 102.45,-468.1 100.11,-478.44 107.07,-477.64"/>
</g>
<!-- 8 -->
<g id="node9" class="node">
<title>8</title>
<path fill="none" stroke="#70d856" stroke-width="2" d="M115,-612C115,-612 12,-612 12,-612 6,-612 0,-606 0,-600 0,-600 0,-588 0,-588 0,-582 6,-576 12,-576 12,-576 115,-576 115,-576 121,-576 127,-582 127,-588 127,-588 127,-600 127,-600 127,-606 121,-612 115,-612"/>
<text text-anchor="middle" x="63.5" y="-597" font-family="sans" font-size="10.00">prepare_fq</text>
<text text-anchor="middle" x="63.5" y="-586" font-family="sans" font-size="10.00">sample: DRR093534_1</text>
</g>
<!-- 8&#45;&gt;6 -->
<g id="edge9" class="edge">
<title>8&#45;&gt;6</title>
<path fill="none" stroke="grey" stroke-width="2" d="M63.3,-575.89C63.53,-557.69 65.18,-528.23 72.5,-504 75.26,-494.88 79.62,-485.51 84.09,-477.22"/>
<polygon fill="grey" stroke="grey" stroke-width="2" points="87.2,-478.83 89.11,-468.41 81.12,-475.37 87.2,-478.83"/>
</g>
<!-- 8&#45;&gt;7 -->
<g id="edge10" class="edge">
<title>8&#45;&gt;7</title>
<path fill="none" stroke="grey" stroke-width="2" d="M74.62,-575.7C79.86,-567.56 86.2,-557.69 91.98,-548.7"/>
<polygon fill="grey" stroke="grey" stroke-width="2" points="95.04,-550.41 97.5,-540.1 89.15,-546.62 95.04,-550.41"/>
</g>
<!-- 9 -->
<g id="node10" class="node">
<title>9</title>
<path fill="none" stroke="#56c9d8" stroke-width="2" d="M196.5,-108C196.5,-108 166.5,-108 166.5,-108 160.5,-108 154.5,-102 154.5,-96 154.5,-96 154.5,-84 154.5,-84 154.5,-78 160.5,-72 166.5,-72 166.5,-72 196.5,-72 196.5,-72 202.5,-72 208.5,-78 208.5,-84 208.5,-84 208.5,-96 208.5,-96 208.5,-102 202.5,-108 196.5,-108"/>
<text text-anchor="middle" x="181.5" y="-87.5" font-family="sans" font-size="10.00">macs2</text>
</g>
<!-- 9&#45;&gt;0 -->
<g id="edge2" class="edge">
<title>9&#45;&gt;0</title>
<path fill="none" stroke="grey" stroke-width="2" d="M171.86,-71.7C167.37,-63.64 161.94,-53.89 156.98,-44.98"/>
<polygon fill="grey" stroke="grey" stroke-width="2" points="159.95,-43.14 152.03,-36.1 153.84,-46.54 159.95,-43.14"/>
</g>
<!-- 10 -->
<g id="node11" class="node">
<title>10</title>
<path fill="none" stroke="#56d8a9" stroke-width="2" d="M205,-180C205,-180 164,-180 164,-180 158,-180 152,-174 152,-168 152,-168 152,-156 152,-156 152,-150 158,-144 164,-144 164,-144 205,-144 205,-144 211,-144 217,-150 217,-156 217,-156 217,-168 217,-168 217,-174 211,-180 205,-180"/>
<text text-anchor="middle" x="184.5" y="-159.5" font-family="sans" font-size="10.00">mark_dup</text>
</g>
<!-- 10&#45;&gt;9 -->
<g id="edge11" class="edge">
<title>10&#45;&gt;9</title>
<path fill="none" stroke="grey" stroke-width="2" d="M183.76,-143.7C183.43,-135.98 183.03,-126.71 182.66,-118.11"/>
<polygon fill="grey" stroke="grey" stroke-width="2" points="186.16,-117.95 182.23,-108.1 179.16,-118.25 186.16,-117.95"/>
</g>
<!-- 11 -->
<g id="node12" class="node">
<title>11</title>
<path fill="none" stroke="#56d873" stroke-width="2" d="M203.5,-252C203.5,-252 165.5,-252 165.5,-252 159.5,-252 153.5,-246 153.5,-240 153.5,-240 153.5,-228 153.5,-228 153.5,-222 159.5,-216 165.5,-216 165.5,-216 203.5,-216 203.5,-216 209.5,-216 215.5,-222 215.5,-228 215.5,-228 215.5,-240 215.5,-240 215.5,-246 209.5,-252 203.5,-252"/>
<text text-anchor="middle" x="184.5" y="-231.5" font-family="sans" font-size="10.00">sort_bam</text>
</g>
<!-- 11&#45;&gt;10 -->
<g id="edge12" class="edge">
<title>11&#45;&gt;10</title>
<path fill="none" stroke="grey" stroke-width="2" d="M184.5,-215.7C184.5,-207.98 184.5,-198.71 184.5,-190.11"/>
<polygon fill="grey" stroke="grey" stroke-width="2" points="188,-190.1 184.5,-180.1 181,-190.1 188,-190.1"/>
</g>
<!-- 12 -->
<g id="node13" class="node">
<title>12</title>
<path fill="none" stroke="#d85656" stroke-width="2" d="M200.5,-324C200.5,-324 168.5,-324 168.5,-324 162.5,-324 156.5,-318 156.5,-312 156.5,-312 156.5,-300 156.5,-300 156.5,-294 162.5,-288 168.5,-288 168.5,-288 200.5,-288 200.5,-288 206.5,-288 212.5,-294 212.5,-300 212.5,-300 212.5,-312 212.5,-312 212.5,-318 206.5,-324 200.5,-324"/>
<text text-anchor="middle" x="184.5" y="-303.5" font-family="sans" font-size="10.00">bowtie2</text>
</g>
<!-- 12&#45;&gt;11 -->
<g id="edge13" class="edge">
<title>12&#45;&gt;11</title>
<path fill="none" stroke="grey" stroke-width="2" d="M184.5,-287.7C184.5,-279.98 184.5,-270.71 184.5,-262.11"/>
<polygon fill="grey" stroke="grey" stroke-width="2" points="188,-262.1 184.5,-252.1 181,-262.1 188,-262.1"/>
</g>
<!-- 13 -->
<g id="node14" class="node">
<title>13</title>
<path fill="none" stroke="#afd856" stroke-width="2" d="M207,-396C207,-396 164,-396 164,-396 158,-396 152,-390 152,-384 152,-384 152,-372 152,-372 152,-366 158,-360 164,-360 164,-360 207,-360 207,-360 213,-360 219,-366 219,-372 219,-372 219,-384 219,-384 219,-390 213,-396 207,-396"/>
<text text-anchor="middle" x="185.5" y="-375.5" font-family="sans" font-size="10.00">sortmerna</text>
</g>
<!-- 13&#45;&gt;12 -->
<g id="edge14" class="edge">
<title>13&#45;&gt;12</title>
<path fill="none" stroke="grey" stroke-width="2" d="M185.25,-359.7C185.14,-351.98 185.01,-342.71 184.89,-334.11"/>
<polygon fill="grey" stroke="grey" stroke-width="2" points="188.39,-334.05 184.74,-324.1 181.39,-334.15 188.39,-334.05"/>
</g>
<!-- 14 -->
<g id="node15" class="node">
<title>14</title>
<path fill="none" stroke="#d88d56" stroke-width="2" d="M203,-468C203,-468 168,-468 168,-468 162,-468 156,-462 156,-456 156,-456 156,-444 156,-444 156,-438 162,-432 168,-432 168,-432 203,-432 203,-432 209,-432 215,-438 215,-444 215,-444 215,-456 215,-456 215,-462 209,-468 203,-468"/>
<text text-anchor="middle" x="185.5" y="-447.5" font-family="sans" font-size="10.00">cutadapt</text>
</g>
<!-- 14&#45;&gt;13 -->
<g id="edge15" class="edge">
<title>14&#45;&gt;13</title>
<path fill="none" stroke="grey" stroke-width="2" d="M185.5,-431.7C185.5,-423.98 185.5,-414.71 185.5,-406.11"/>
<polygon fill="grey" stroke="grey" stroke-width="2" points="189,-406.1 185.5,-396.1 182,-406.1 189,-406.1"/>
</g>
<!-- 15 -->
<g id="node16" class="node">
<title>15</title>
<path fill="none" stroke="#d8cb56" stroke-width="2" d="M240.5,-540C240.5,-540 210.5,-540 210.5,-540 204.5,-540 198.5,-534 198.5,-528 198.5,-528 198.5,-516 198.5,-516 198.5,-510 204.5,-504 210.5,-504 210.5,-504 240.5,-504 240.5,-504 246.5,-504 252.5,-510 252.5,-516 252.5,-516 252.5,-528 252.5,-528 252.5,-534 246.5,-540 240.5,-540"/>
<text text-anchor="middle" x="225.5" y="-519.5" font-family="sans" font-size="10.00">fastqc</text>
</g>
<!-- 15&#45;&gt;14 -->
<g id="edge16" class="edge">
<title>15&#45;&gt;14</title>
<path fill="none" stroke="grey" stroke-width="2" d="M215.61,-503.7C211.01,-495.64 205.44,-485.89 200.35,-476.98"/>
<polygon fill="grey" stroke="grey" stroke-width="2" points="203.27,-475.05 195.27,-468.1 197.2,-478.52 203.27,-475.05"/>
</g>
<!-- 16 -->
<g id="node17" class="node">
<title>16</title>
<path fill="none" stroke="#70d856" stroke-width="2" d="M265,-612C265,-612 162,-612 162,-612 156,-612 150,-606 150,-600 150,-600 150,-588 150,-588 150,-582 156,-576 162,-576 162,-576 265,-576 265,-576 271,-576 277,-582 277,-588 277,-588 277,-600 277,-600 277,-606 271,-612 265,-612"/>
<text text-anchor="middle" x="213.5" y="-597" font-family="sans" font-size="10.00">prepare_fq</text>
<text text-anchor="middle" x="213.5" y="-586" font-family="sans" font-size="10.00">sample: DRR093535_1</text>
</g>
<!-- 16&#45;&gt;14 -->
<g id="edge17" class="edge">
<title>16&#45;&gt;14</title>
<path fill="none" stroke="grey" stroke-width="2" d="M203.76,-575.93C198.51,-565.82 192.51,-552.57 189.5,-540 184.64,-519.73 183.79,-496.13 184.08,-478.33"/>
<polygon fill="grey" stroke="grey" stroke-width="2" points="187.57,-478.43 184.36,-468.33 180.58,-478.23 187.57,-478.43"/>
</g>
<!-- 16&#45;&gt;15 -->
<g id="edge18" class="edge">
<title>16&#45;&gt;15</title>
<path fill="none" stroke="grey" stroke-width="2" d="M216.47,-575.7C217.79,-567.98 219.38,-558.71 220.85,-550.11"/>
<polygon fill="grey" stroke="grey" stroke-width="2" points="224.33,-550.55 222.57,-540.1 217.43,-549.37 224.33,-550.55"/>
</g>
</g>
</svg>
